<svg id="Layer_1" enable-background="new 0 0 512.001 512.001" height="100" viewBox="0 0 512.001 512.001" width="100" xmlns="http://www.w3.org/2000/svg"><g><g><path d="m487.904 276.531h-86.222v-35.748c19.215-.724 38.315-3.531 56.618-8.436 3.835-1.024 7.043-3.483 9.034-6.921 4.112-7.098 1.682-16.218-5.429-20.338-4.705-2.716-9.125-5.849-13.249-9.133.744-.19 1.484-.385 2.223-.583 3.688-.985 6.774-3.351 8.688-6.657 1.917-3.308 2.43-7.165 1.446-10.859s-3.347-6.783-6.668-8.707c-4.04-2.332-7.86-5.028-11.5-7.923 2.85-1.208 5.222-3.306 6.798-6.049 1.904-3.313 2.404-7.169 1.408-10.858-.996-3.688-3.369-6.768-6.664-8.662-4.359-2.517-8.411-5.313-12.08-8.323 2.396-.886 4.818-1.991 7.21-3.372 2.675-1.546 4.813-3.974 6.018-6.835 1.484-3.521 1.507-7.41.066-10.949-1.44-3.539-4.173-6.305-7.703-7.792-15.451-6.495-23.236-18.563-28.389-26.548-2.929-4.539-7.831-12.137-17.827-12.137s-14.897 7.598-17.826 12.137c-5.113 7.924-12.831 19.885-28.073 26.414-3.001 1.178-5.532 3.349-7.155 6.149-3.955 6.829-1.617 15.602 5.223 19.564 2.39 1.38 4.811 2.484 7.205 3.37-3.534 2.899-7.423 5.6-11.598 8.043-3.533 1.858-6.132 5.102-7.168 8.976-1.861 6.967 1.774 14.133 8.229 16.872-3.559 2.831-7.291 5.471-11.232 7.768-3.41 1.875-5.931 5.086-6.938 8.852-.987 3.694-.476 7.552 1.438 10.862 1.915 3.311 5.004 5.678 8.699 6.665.738.198 1.479.392 2.222.583-4.038 3.215-8.359 6.285-12.955 8.961-3.551 1.946-6.178 5.287-7.228 9.211-2.118 7.929 2.61 16.102 10.53 18.217 18.31 4.906 37.409 7.714 56.626 8.438v35.748h-31.938c-10.369 0-20.314-2.368-26.601-6.334l-79.263-50.012v-39.105c19.215-.725 38.317-3.532 56.621-8.436 3.832-1.024 7.04-3.482 9.032-6.922 4.11-7.099 1.68-16.218-5.43-20.336-4.705-2.716-9.125-5.849-13.249-9.133.744-.191 1.485-.385 2.224-.583 3.686-.985 6.771-3.35 8.687-6.657 1.917-3.308 2.43-7.165 1.446-10.859-.984-3.695-3.348-6.784-6.668-8.707-4.04-2.332-7.861-5.028-11.5-7.923 2.851-1.208 5.222-3.306 6.799-6.05 1.903-3.313 2.403-7.168 1.407-10.856-.997-3.689-3.37-6.769-6.665-8.662-4.358-2.517-8.411-5.313-12.08-8.323 2.396-.886 4.818-1.991 7.21-3.372 2.676-1.547 4.813-3.976 6.017-6.835 1.484-3.521 1.508-7.41.066-10.95-1.441-3.539-4.174-6.305-7.703-7.792-15.452-6.495-23.236-18.563-28.389-26.548-2.927-4.538-7.829-12.136-17.825-12.136s-14.898 7.598-17.827 12.137c-5.113 7.924-12.831 19.885-28.073 26.413-3.002 1.179-5.533 3.351-7.154 6.149-1.916 3.308-2.429 7.164-1.445 10.857.984 3.695 3.349 6.785 6.668 8.707 2.39 1.379 4.811 2.484 7.205 3.37-3.533 2.899-7.422 5.6-11.597 8.042-3.535 1.858-6.134 5.104-7.169 8.977-.987 3.694-.476 7.552 1.438 10.862 1.575 2.724 3.945 4.809 6.79 6.01-3.558 2.831-7.291 5.471-11.231 7.767-3.412 1.875-5.933 5.087-6.937 8.85-.988 3.694-.478 7.553 1.437 10.864 1.913 3.309 5 5.675 8.691 6.663.741.198 1.484.394 2.23.584-4.038 3.215-8.359 6.286-12.956 8.962-3.552 1.948-6.178 5.289-7.226 9.21-2.118 7.929 2.61 16.102 10.53 18.217 18.311 4.906 37.409 7.714 56.627 8.438v26.484l-12.106-7.638c-7.068-4.819-17.252-7.924-26.023-7.924h-161.653c-13.287 0-24.097 10.775-24.097 24.019v271.962c0 13.244 10.81 24.019 24.097 24.019h463.806c13.287 0 24.097-10.774 24.097-24.019v-187.432c0-13.244-10.81-24.019-24.097-24.019zm-146.231-60.757c8.208-5.92 15.313-12.45 21.437-18.374 2.721-2.631 3.723-6.574 2.588-10.185s-4.211-6.272-7.949-6.875c-2.509-.404-5.011-.855-7.496-1.352 6.931-5.226 13.11-10.999 18.865-16.64 2.795-2.74 3.735-6.858 2.405-10.539s-4.685-6.248-8.585-6.568c-.685-.056-1.367-.121-2.046-.192 7.113-5.436 13.272-11.566 18.158-18.111 2.213-2.965 2.609-6.91 1.028-10.255s-4.88-5.544-8.576-5.716c-2.292-.106-4.386-.301-6.317-.592 13.417-9.001 20.983-20.727 25.478-27.693.391-.606.729-1.111 1.021-1.531.292.42.63.924 1.021 1.531 4.5 6.974 12.063 18.696 25.474 27.693-1.931.291-4.024.485-6.314.592-3.696.173-6.995 2.372-8.575 5.717-1.581 3.345-1.186 7.29 1.028 10.254 4.887 6.546 11.043 12.674 18.157 18.11-.683.073-1.364.137-2.045.193-3.901.321-7.256 2.888-8.585 6.568-1.33 3.681-.39 7.799 2.405 10.539 5.756 5.643 11.938 11.417 18.863 16.64-2.484.496-4.985.947-7.495 1.351-3.737.603-6.813 3.264-7.948 6.875s-.133 7.554 2.587 10.186c6.128 5.928 13.234 12.458 21.437 18.375-13.085 2.788-26.513 4.439-40.009 4.991v-32.672c0-5.523-4.477-10-10-10s-10 4.477-10 10v32.672c-13.498-.552-26.927-2.203-40.012-4.992zm-161.822-99.424c-.001 0-.003-.001-.005-.001.008.002.016.004.024.006-.006-.002-.012-.003-.019-.005zm4.019 39.722c8.208-5.92 15.313-12.451 21.437-18.375 2.721-2.632 3.722-6.574 2.587-10.186-1.135-3.611-4.211-6.272-7.949-6.875-2.509-.404-5.011-.855-7.496-1.351 6.931-5.227 13.111-11 18.864-16.64 2.795-2.74 3.735-6.858 2.405-10.539s-4.685-6.248-8.585-6.569c-.685-.056-1.367-.121-2.046-.193 7.112-5.435 13.272-11.566 18.158-18.11 2.213-2.965 2.609-6.91 1.028-10.255s-4.88-5.544-8.576-5.716c-2.292-.106-4.386-.301-6.318-.592 13.417-9 20.983-20.726 25.478-27.692.392-.607.729-1.111 1.021-1.531.292.419.63.924 1.021 1.53 4.5 6.975 12.061 18.696 25.474 27.693-1.931.291-4.024.485-6.314.592-3.696.173-6.995 2.372-8.575 5.717-1.581 3.345-1.186 7.29 1.028 10.255 4.887 6.546 11.043 12.673 18.157 18.109-.683.073-1.364.137-2.045.193-3.901.321-7.256 2.888-8.585 6.568-1.33 3.681-.39 7.799 2.405 10.539 5.756 5.643 11.938 11.417 18.863 16.64-2.485.496-4.986.947-7.495 1.351-3.737.603-6.813 3.264-7.948 6.875s-.133 7.554 2.587 10.186c6.128 5.928 13.234 12.458 21.437 18.375-13.085 2.788-26.513 4.438-40.009 4.99v-32.672c0-5.523-4.477-10-10-10s-10 4.477-10 10v32.672c-13.494-.55-26.923-2.201-40.009-4.989zm-163.869 98.931h152.75c5.465 0 11.599 2.265 14.835 4.503.115.08.233.158.352.232l111.533 70.374c13.477 8.502 30.556 9.42 37.273 9.42h155.256v85.067h-155.257c-10.771 0-21.11-1.852-27.655-4.954l-111.38-52.794c-6.825-3.498-16.594-5.752-24.958-5.752h-152.749zm4.097-43.001h161.653c5.465 0 11.599 2.265 14.835 4.503.115.08.233.158.352.233l111.534 70.374c13.477 8.501 30.556 9.419 37.273 9.419h138.16c2.259 0 4.097 1.803 4.097 4.019v18.982h-155.259c-10.37 0-20.314-2.368-26.602-6.334l-111.37-70.271c-7.067-4.818-17.252-7.924-26.022-7.924h-152.748v-18.982c0-2.216 1.838-4.019 4.097-4.019zm463.806 279.999h-463.806c-2.259 0-4.097-1.803-4.097-4.019v-15.982h51.718c5.523 0 10-4.477 10-10s-4.477-10-10-10h-51.718v-70.902h152.749c5.91 0 12.479 1.806 15.913 3.59.108.057.217.111.327.163l111.533 52.867c13.104 6.21 29.696 6.881 36.221 6.881h155.256v43.384c.001 2.216-1.837 4.018-4.096 4.018z"/><path d="m75.04 302.466c5.523 0 10-4.477 10-10s-4.477-10-10-10h-.007c-5.523 0-9.997 4.477-9.997 10s4.481 10 10.004 10z"/><path d="m144.048 332.466c5.523 0 10-4.477 10-10s-4.477-10-10-10h-.007c-5.523 0-9.997 4.477-9.997 10s4.481 10 10.004 10z"/><path d="m230.048 332.466c5.523 0 10-4.477 10-10s-4.477-10-10-10h-.007c-5.523 0-9.997 4.477-9.997 10s4.481 10 10.004 10z"/><path d="m292.048 386.466c5.523 0 10-4.477 10-10s-4.477-10-10-10h-.007c-5.523 0-9.997 4.477-9.997 10s4.481 10 10.004 10z"/><path d="m370.048 379.966c5.523 0 10-4.477 10-10s-4.477-10-10-10h-.007c-5.523 0-9.997 4.477-9.997 10s4.481 10 10.004 10z"/><path d="m448.048 403.466c5.523 0 10-4.477 10-10s-4.477-10-10-10h-.007c-5.523 0-9.997 4.477-9.997 10s4.481 10 10.004 10z"/><path d="m116.716 452c-5.523 0-10 4.477-10 10s4.477 10 10 10h.007c5.523 0 9.997-4.477 9.997-10s-4.481-10-10.004-10z"/></g></g></svg>