<svg height="512pt" viewBox="0 0 512 512" width="512pt" xmlns="http://www.w3.org/2000/svg"><path d="m129.921875 289.460938v29.183593l78.855469 78.855469h94.441406l78.859375-78.855469v-29.183593c36.023437-3.761719 64.199219-34.304688 64.199219-71.308594 0-24.121094-12.023438-46.476563-32.164063-59.808594-14.324219-9.476562-26.695312-21.804688-36.773437-36.636719-14.242188-20.960937-33.355469-37.519531-55.269532-48.585937l6.769532-26.257813c6.121094-23.730469-11.777344-46.863281-36.308594-46.863281h-73.070312c-24.503907 0-42.433594 23.109375-36.308594 46.863281l6.769531 26.257813c-21.914063 11.066406-41.035156 27.632812-55.273437 48.59375-10.078126 14.832031-22.449219 27.15625-36.765626 36.632812-20.140624 13.332032-32.160156 35.6875-32.160156 59.804688 0 37.003906 28.175782 67.546875 64.199219 71.308594zm237.15625 22.96875-70.070313 70.070312h-82.015624l-70.070313-70.070312v-80.570313c0-29.351563 23.089844-53.410156 52.0625-54.96875l26.925781 26.46875h64.179688l26.929687-26.46875c28.96875 1.558594 52.058594 25.617187 52.058594 54.96875zm-169.402344-269.3125c-3.671875-14.234376 7.066407-28.117188 21.785157-28.117188h73.070312c14.703125 0 25.460938 13.867188 21.785156 28.117188l-6.15625 23.863281c-16.429687-6.253907-34.070312-9.582031-52.164062-9.582031s-35.734375 3.328124-52.164063 9.582031zm-91.511719 127.738281c15.953126-10.558594 29.710938-24.257813 40.890626-40.710938 24.566406-36.160156 65.292968-57.746093 108.941406-57.746093 43.648437 0 84.371094 21.582031 108.9375 57.738281 11.183594 16.457031 24.945312 30.15625 40.902344 40.71875 15.929687 10.542969 25.441406 28.222656 25.441406 47.296875 0 28.722656-21.46875 52.523437-49.199219 56.207031v-42.5c0-38.625-31.425781-70.046875-70.050781-70.046875h-3.066406l-26.382813 25.929688v-26.171876h-15v26.789063h-23.164063v-26.789063h-15v26.167969l-26.375-25.925781h-3.066406c-38.625 0-70.050781 31.421875-70.050781 70.046875v42.5c-27.734375-3.683594-49.199219-27.484375-49.199219-56.207031 0-19.074219 9.507813-36.753906 25.441406-47.296875zm0 0"/><path d="m481.425781 302.105469-65.511719-16.859375-3.738281 14.527344 59.257813 15.25 25.566406 46.128906v135.847656h-45.808594l-24.050781-75.617188-14.292969 4.546876 22.605469 71.070312h-171.953125v-32.921875h-15v32.921875h-171.957031l22.605469-71.070312-14.296876-4.546876-24.050781 75.617188h-45.800781v-135.847656l25.566406-46.128906 59.257813-15.25-3.738281-14.527344-65.511719 16.859375-30.574219 55.167969v154.726562h512v-154.726562zm0 0"/><path d="m284.171875 252.78125h-22.242187v-19.066406h-15v19.066406h-19.105469l-42.121094-42.121094-10.609375 10.609375 46.515625 46.511719h68.773437l46.515626-46.511719-10.609376-10.609375zm0 0"/><path d="m265.980469 25h30v15h-30zm0 0"/><path d="m215.980469 25h15v15h-15zm0 0"/><path d="m240.980469 25h15v15h-15zm0 0"/></svg>